<svg width="896" height="327" viewBox="0 0 896 327" fill="none" xmlns="http://www.w3.org/2000/svg">
<path fill="#fff" d="M209.088 218.752C206.784 219.648 204.736 220.096 202.944 220.096C200 220.096 197.056 219.392 194.112 217.984C191.168 216.704 188.608 214.848 186.432 212.416C185.152 211.136 184.512 209.792 184.512 208.384C184.512 207.616 184.704 206.656 185.088 205.504C185.728 203.2 186.56 202.048 187.584 202.048C188.096 202.048 188.864 202.368 189.888 203.008C190.784 203.776 191.616 204.672 192.384 205.696C194.944 207.872 197.376 208.96 199.68 208.96C204.288 208.96 209.152 204.992 214.272 197.056L219.264 185.92C226.432 170.176 230.464 160.96 231.36 158.272C231.36 158.144 231.424 157.888 231.552 157.504C231.68 157.12 231.936 156.672 232.32 156.16C232.448 155.648 232.768 154.56 233.28 152.896C233.92 151.232 234.432 149.504 234.816 147.712L242.88 124.864C243.392 122.304 244.096 119.552 244.992 116.608C246.016 113.536 246.912 110.976 247.68 108.928C248.192 107.904 250.112 102.4 253.44 92.416C254.976 87.552 256.32 83.392 257.472 79.936C257.984 78.4 258.944 75.328 260.352 70.72C261.76 66.112 262.336 63.616 262.08 63.232L251.328 65.152C249.92 65.792 248.192 66.112 246.144 66.112C244.864 66.112 243.776 65.984 242.88 65.728C242.112 65.472 241.792 65.152 241.92 64.768V63.808C241.28 64.32 240.384 64 239.232 62.848C238.208 61.568 237.76 60.416 237.888 59.392C237.888 58.368 239.104 57.472 241.536 56.704C244.096 55.808 247.424 55.104 251.52 54.592L265.344 52.672C265.984 52.16 267.584 52.416 270.144 53.44C272.704 54.336 274.496 55.296 275.52 56.32C276.544 57.728 277.056 59.136 277.056 60.544C277.056 62.336 276.48 64.896 275.328 68.224C274.304 71.424 271.872 78.208 268.032 88.576L261.696 106.432C258.624 115.776 256.256 122.368 254.592 126.208C254.08 127.872 253.376 129.92 252.48 132.352C250.304 138.624 248.704 143.616 247.68 147.328C246.144 150.912 244.48 155.776 242.688 161.92C242.688 162.944 242.432 164.096 241.92 165.376C241.408 166.656 240.832 167.616 240.192 168.256L235.584 179.584L233.856 184.192C233.6 184.96 232.896 186.688 231.744 189.376C230.72 192.064 229.76 194.048 228.864 195.328C228.48 196.352 227.776 197.696 226.752 199.36C225.728 201.024 225.216 202.048 225.216 202.432C225.216 202.56 225.152 202.752 225.024 203.008C224.896 203.392 224.64 203.584 224.256 203.584C224.128 203.712 223.872 203.904 223.488 204.16C223.232 204.544 223.104 204.992 223.104 205.504C222.464 207.04 220.48 209.408 217.152 212.608C213.824 215.808 211.136 217.856 209.088 218.752ZM275.885 193.792C274.733 193.28 273.389 192.256 271.853 190.72C269.037 188.928 266.925 186.88 265.517 184.576C264.109 182.272 263.341 179.136 263.213 175.168C263.213 174.144 264.045 172.736 265.709 170.944C267.501 169.024 269.421 168.064 271.469 168.064C272.621 168.064 273.773 168.448 274.925 169.216C273.773 172.928 273.197 175.424 273.197 176.704C273.197 178.368 273.773 179.712 274.925 180.736C276.205 181.632 278.381 182.4 281.453 183.04C283.245 183.424 284.909 183.616 286.445 183.616C288.493 183.616 291.309 183.296 294.893 182.656C298.477 182.4 301.229 182.144 303.149 181.888C305.069 181.504 306.477 180.928 307.373 180.16C311.085 178.624 314.413 176.832 317.357 174.784C320.301 172.608 322.285 170.432 323.309 168.256C324.589 166.592 325.357 165.248 325.613 164.224C325.869 163.2 325.997 161.984 325.997 160.576C325.997 159.168 325.997 158.144 325.997 157.504C325.869 153.408 325.549 150.592 325.037 149.056C324.525 147.392 322.861 143.616 320.045 137.728C320.045 136.96 318.829 135.232 316.397 132.544C313.965 129.728 312.365 127.872 311.597 126.976C309.933 123.52 308.525 120.832 307.373 118.912C306.349 116.992 305.069 115.52 303.533 114.496C303.149 113.984 302.637 112.896 301.997 111.232C301.357 109.568 300.909 108.672 300.653 108.544C300.525 108.416 300.333 108.096 300.077 107.584C299.821 106.944 299.501 106.176 299.117 105.28C298.093 102.976 297.581 100.544 297.581 97.984C297.581 94.4 298.349 90.688 299.885 86.848C301.549 82.88 303.917 79.168 306.989 75.712C308.397 73.28 310.957 70.336 314.669 66.88C318.509 63.296 320.813 61.504 321.581 61.504C321.837 61.376 322.349 61.184 323.117 60.928C324.013 60.544 324.973 59.968 325.997 59.2C327.149 58.944 328.749 58.432 330.797 57.664C332.845 56.768 334.573 56.32 335.981 56.32C337.901 55.68 339.437 55.232 340.589 54.976C341.869 54.592 343.149 54.4 344.429 54.4L349.997 54.784C356.397 56.448 360.365 59.776 361.901 64.768L363.245 73.024L355.181 78.976C353.645 79.488 351.725 79.744 349.421 79.744C347.885 79.744 346.541 79.68 345.389 79.552C344.237 79.424 343.469 79.296 343.085 79.168C342.445 79.168 342.125 78.848 342.125 78.208C342.125 77.824 342.253 77.504 342.509 77.248C342.893 76.992 343.277 76.864 343.661 76.864C344.045 76.48 344.685 75.84 345.581 74.944C346.477 73.92 347.373 72.96 348.269 72.064C349.165 70.656 349.613 69.504 349.613 68.608C349.613 67.968 349.357 67.584 348.845 67.456C348.461 67.2 347.693 67.072 346.541 67.072L341.549 67.456C336.941 67.712 332.589 68.928 328.493 71.104C324.397 73.152 321.005 76.16 318.317 80.128C315.245 82.816 312.941 85.632 311.405 88.576C309.869 91.52 309.101 94.144 309.101 96.448C309.741 99.52 310.829 102.464 312.365 105.28L323.309 120.448C326.253 124.16 327.725 126.272 327.725 126.784V127.744C327.981 127.744 329.005 129.472 330.797 132.928C332.589 136.384 333.485 138.432 333.485 139.072L335.213 143.104C335.853 143.744 336.493 146.432 337.133 151.168C337.773 155.904 338.093 159.552 338.093 162.112C337.965 164.288 337.133 166.72 335.597 169.408C334.189 172.096 332.397 174.592 330.221 176.896C327.533 179.712 323.629 182.848 318.509 186.304C313.389 189.76 308.973 191.936 305.26 192.832C303.085 193.6 300.205 194.24 296.621 194.752C293.165 195.264 289.709 195.52 286.253 195.52C280.493 195.52 277.037 194.944 275.885 193.792ZM382.316 181.888C380.524 182.144 379.18 182.272 378.284 182.272C373.548 182.272 369.644 180.8 366.572 177.856C363.5 174.912 361.964 170.816 361.964 165.568C361.452 159.936 362.668 152.96 365.612 144.64C368.684 136.32 372.524 129.344 377.132 123.712C380.332 120 383.084 116.992 385.388 114.688C387.692 112.384 389.804 110.848 391.724 110.08C394.412 108.928 397.42 108.352 400.748 108.352C403.052 108.864 405.292 109.824 407.468 111.232C409.772 112.64 410.924 114.048 410.924 115.456L411.884 116.416C412.652 116.416 413.356 117.376 413.996 119.296C414.636 121.088 414.956 123.072 414.956 125.248C414.956 127.04 414.636 128.576 413.996 129.856C413.484 132.288 412.588 134.4 411.308 136.192C410.156 137.984 409.004 138.88 407.852 138.88C406.444 138.88 405.74 139.264 405.74 140.032C405.74 140.544 405.484 140.8 404.972 140.8C404.332 140.8 403.564 140.416 402.668 139.648C401.772 138.88 401.132 137.984 400.748 136.96C400.748 136.576 401.004 135.488 401.516 133.696C402.028 131.904 402.54 129.92 403.052 127.744C403.436 126.208 403.628 124.864 403.628 123.712C403.628 121.152 402.668 119.872 400.748 119.872C399.724 119.872 398.7 120.128 397.676 120.64C392.556 123.456 388.012 127.936 384.044 134.08C380.076 140.224 376.748 148.672 374.06 159.424C373.42 162.24 373.1 164.48 373.1 166.144C373.1 167.424 373.164 168.448 373.292 169.216C373.548 169.984 373.804 170.432 374.06 170.56C374.7 170.816 376.044 170.944 378.092 170.944C382.828 170.944 386.156 170.368 388.076 169.216C392.172 167.04 396.716 164.096 401.708 160.384C402.22 160 402.988 159.36 404.012 158.464C405.036 157.44 405.996 156.736 406.892 156.352C407.788 154.944 408.62 154.112 409.388 153.856C410.156 153.472 411.372 153.28 413.036 153.28C414.7 153.792 416.044 154.496 417.068 155.392C418.092 156.16 418.092 156.8 417.068 157.312C416.684 157.312 416.428 157.44 416.3 157.696C416.172 157.952 416.108 158.144 416.108 158.272C416.364 158.912 415.34 160.512 413.036 163.072C410.732 165.632 408.172 168.064 405.356 170.368C402.54 172.544 400.62 173.632 399.596 173.632C399.084 173.632 398.636 173.696 398.252 173.824C397.868 173.952 397.676 174.272 397.676 174.784C397.676 175.296 395.692 176.512 391.724 178.432C387.884 180.224 384.748 181.376 382.316 181.888ZM440.966 178.048C440.198 178.048 439.11 177.792 437.702 177.28C436.294 176.768 435.398 176.32 435.014 175.936C433.734 174.656 433.094 173.184 433.094 171.52C433.094 168.704 434.502 165.312 437.318 161.344C438.086 159.808 440.006 154.496 443.078 145.408L446.918 134.848C447.174 132.672 447.046 131.136 446.534 130.24C446.022 129.216 444.934 128.64 443.27 128.512H442.118C440.966 128.512 440.198 128.32 439.814 127.936C439.43 127.424 439.238 126.208 439.238 124.288C439.366 122.752 439.75 121.6 440.39 120.832C441.03 120.064 442.118 119.168 443.654 118.144C445.702 117.12 447.814 116.608 449.99 116.608C452.038 116.608 453.574 117.056 454.598 117.952C455.366 118.464 455.878 119.616 456.134 121.408C456.518 123.072 456.71 124.864 456.71 126.784C456.838 128.576 456.966 129.856 457.094 130.624C457.734 129.984 459.27 128.704 461.702 126.784C464.262 124.736 466.438 122.816 468.23 121.024C470.406 119.488 472.902 118.016 475.718 116.608C478.534 115.2 480.518 114.496 481.67 114.496C483.078 114.496 484.486 114.88 485.894 115.648C487.302 116.288 488.262 117.12 488.774 118.144C489.926 120.192 490.502 122.048 490.502 123.712C490.502 125.504 489.798 127.296 488.39 129.088C487.238 130.496 485.766 131.584 483.974 132.352C482.182 133.12 480.902 133.504 480.134 133.504C479.366 133.504 478.406 132.928 477.254 131.776C476.102 130.624 475.462 129.664 475.334 128.896C475.334 128.384 473.67 129.408 470.342 131.968C467.142 134.4 464.646 136.512 462.854 138.304C460.806 140.736 458.694 143.936 456.518 147.904C454.47 151.872 451.398 157.888 447.302 165.952C446.918 166.848 446.022 169.024 444.614 172.48C443.974 174.528 443.398 176 442.886 176.896C442.374 177.664 441.734 178.048 440.966 178.048ZM519.561 99.904C518.665 99.008 517.897 97.472 517.257 95.296C516.617 93.12 516.617 92.032 517.257 92.032C518.281 91.904 519.433 90.816 520.713 88.768C522.121 86.592 522.761 84.8 522.633 83.392C522.633 82.88 522.825 82.432 523.209 82.048C523.593 81.536 524.041 81.216 524.553 81.088C525.577 80.448 526.473 80.128 527.241 80.128C529.417 80.128 531.401 81.664 533.193 84.736C533.961 86.4 534.345 87.872 534.345 89.152C534.345 90.304 534.025 91.52 533.385 92.8C532.745 93.952 531.593 95.488 529.929 97.408C527.753 100.352 525.705 101.824 523.785 101.824C522.505 101.824 521.097 101.184 519.561 99.904ZM500.937 177.856C499.145 176.064 498.249 173.504 498.249 170.176C498.249 168.384 498.569 166.848 499.209 165.568C499.209 164.928 499.337 164.16 499.593 163.264C499.849 162.368 499.977 161.792 499.977 161.536C499.849 160.768 500.361 158.656 501.513 155.2C503.817 150.08 506.889 141.056 510.729 128.128C510.729 127.488 510.985 126.976 511.497 126.592C512.009 126.08 512.777 125.76 513.801 125.632C514.825 125.376 515.529 125.248 515.913 125.248C516.681 125.248 517.321 125.568 517.833 126.208C518.473 126.72 519.305 127.744 520.329 129.28C521.097 130.048 521.481 131.2 521.481 132.736C521.481 135.168 520.649 138.112 518.985 141.568C517.321 145.28 516.233 148.48 515.721 151.168C514.185 154.624 512.969 157.824 512.073 160.768C511.817 161.536 511.433 163.072 510.921 165.376C510.409 167.68 509.705 169.536 508.809 170.944C508.041 174.528 507.337 177.024 506.697 178.432C506.057 179.84 505.353 180.544 504.585 180.544C503.689 180.544 502.473 179.648 500.937 177.856ZM526.19 226.816C524.782 226.304 523.374 225.152 521.966 223.36C520.558 221.696 519.854 220.288 519.854 219.136C519.854 217.216 521.134 210.88 523.694 200.128C526.254 189.504 528.75 180.864 531.182 174.208C531.31 173.696 532.142 171.584 533.678 167.872C535.214 164.16 536.686 159.68 538.094 154.432C539.118 150.72 541.806 143.488 546.158 132.736L551.726 118.912L556.142 106.816C556.526 105.792 557.166 104.896 558.062 104.128C559.086 103.232 559.982 102.656 560.75 102.4C561.006 102.272 561.454 102.208 562.094 102.208C563.886 102.208 565.422 103.232 566.702 105.28C567.086 106.048 567.278 106.816 567.278 107.584C567.278 108.864 566.51 111.36 564.974 115.072L563.63 118.912L570.542 117.376C572.334 117.376 573.806 117.44 574.958 117.568C579.566 117.568 582.446 117.696 583.598 117.952C586.414 118.08 588.398 118.592 589.55 119.488C590.83 120.384 592.046 121.792 593.198 123.712C595.502 125.888 596.782 127.808 597.038 129.472C597.294 131.008 597.422 132.224 597.422 133.12C597.422 137.216 596.206 141.44 593.774 145.792C591.342 150.016 588.462 153.216 585.134 155.392C583.854 155.904 582.766 156.416 581.87 156.928C580.974 157.44 580.398 157.76 580.142 157.888C579.886 158.912 576.942 160.576 571.31 162.88C565.806 165.056 561.262 166.4 557.678 166.912C556.398 167.168 554.926 167.296 553.262 167.296C551.854 167.296 550.766 167.104 549.998 166.72C548.462 166.464 547.438 166.336 546.926 166.336C546.542 166.336 546.35 166.592 546.35 167.104C543.15 176.576 540.526 185.216 538.478 193.024C533.998 206.592 530.99 215.424 529.454 219.52C527.918 223.744 526.83 226.176 526.19 226.816ZM550.19 155.968C550.318 156.48 551.022 156.736 552.302 156.736C554.99 156.736 559.086 155.52 564.59 153.088C570.222 150.528 574.638 147.904 577.838 145.216C580.526 142.016 582.574 139.392 583.982 137.344C585.518 135.168 586.286 133.504 586.286 132.352C586.286 131.84 586.03 131.328 585.518 130.816C584.238 128.896 581.934 127.936 578.606 127.936C574.382 127.936 569.326 129.536 563.438 132.736C560.878 133.632 559.022 134.848 557.87 136.384C556.846 137.792 555.886 139.584 554.99 141.76C554.094 143.936 553.39 145.6 552.878 146.752C550.83 151.616 549.934 154.688 550.19 155.968ZM622.368 182.656C620.32 182.272 618.208 180.928 616.032 178.624C613.984 176.192 612.64 173.952 612 171.904C612 171.648 611.872 171.392 611.616 171.136C611.36 170.752 611.168 170.496 611.04 170.368C610.528 169.984 610.272 167.872 610.272 164.032C610.272 160.96 610.4 157.76 610.656 154.432C611.04 151.104 611.488 148.416 612 146.368L615.456 136.192L618.144 128.512L623.328 117.376L615.648 115.264C614.752 115.136 613.984 114.688 613.344 113.92C612.832 113.152 612.576 112.448 612.576 111.808C612.576 110.784 613.088 109.568 614.112 108.16C615.264 106.624 616.16 105.856 616.8 105.856C617.184 105.984 618.208 106.048 619.872 106.048C623.712 106.048 626.592 105.856 628.512 105.472C629.792 104.96 630.688 103.936 631.2 102.4C631.712 101.376 632.288 100.096 632.928 98.56C633.696 97.024 634.4 95.616 635.04 94.336C635.424 93.568 636 92.416 636.768 90.88C637.664 89.216 638.752 87.36 640.032 85.312C640.288 84.928 640.864 84.032 641.76 82.624C642.656 81.088 643.744 79.808 645.024 78.784C645.92 77.888 647.008 77.44 648.288 77.44C649.568 77.44 651.232 78.272 653.28 79.936C653.536 80.32 653.856 80.832 654.24 81.472C654.752 82.112 655.008 82.688 655.008 83.2C655.008 83.712 654.496 84.8 653.472 86.464C652.704 88 651.936 89.408 651.168 90.688C650.528 91.84 649.952 92.864 649.44 93.76C647.904 96.32 646.816 98.24 646.176 99.52C644.896 101.184 644.256 102.464 644.256 103.36C644.256 104.256 645.088 104.704 646.752 104.704C648.544 104.704 651.552 104.32 655.776 103.552C657.568 103.296 658.784 103.168 659.424 103.168C663.904 103.168 666.336 105.024 666.72 108.736C666.848 109.504 666.912 110.4 666.912 111.424C666.912 113.216 666.272 114.304 664.992 114.688C663.84 115.072 661.152 115.264 656.928 115.264C652.832 115.904 648.608 116.224 644.256 116.224C643.488 116.224 642.592 116.288 641.568 116.416C640.672 116.416 639.712 116.544 638.688 116.8C637.664 117.056 636.896 117.44 636.384 117.952C636 118.464 635.552 119.296 635.04 120.448C634.656 120.832 633.76 122.304 632.352 124.864C630.56 128.576 629.408 130.816 628.896 131.584C625.44 141.824 622.88 152.32 621.216 163.072C620.96 165.12 620.832 166.4 620.832 166.912C620.832 168.832 621.472 170.176 622.752 170.944C624.032 171.712 626.208 172.096 629.28 172.096C633.632 172.096 637.408 171.648 640.608 170.752C644.448 169.088 647.328 167.68 649.248 166.528C650.4 165.888 651.424 165.312 652.32 164.8C653.344 164.16 654.048 163.712 654.432 163.456C654.816 162.688 655.264 162.304 655.776 162.304C656.8 162.304 657.696 163.328 658.464 165.376C658.464 167.424 658.016 169.216 657.12 170.752C656.224 172.288 653.984 174.08 650.4 176.128C642.976 180.864 635.552 183.232 628.128 183.232C626.08 183.232 624.16 183.04 622.368 182.656ZM715.883 183.616C714.987 184.128 713.771 183.936 712.235 183.04C710.827 182.144 709.419 180.8 708.01 179.008C706.987 177.344 706.347 175.616 706.091 173.824C705.963 172.032 705.899 168.32 705.899 162.688C705.899 161.408 705.643 160.768 705.131 160.768C704.747 160.768 703.851 161.408 702.443 162.688C701.035 163.84 699.307 165.44 697.259 167.488C693.931 170.688 690.859 173.184 688.043 174.976C685.227 176.768 682.923 177.6 681.131 177.472C679.723 177.472 678.187 176.512 676.523 174.592C674.987 172.672 673.771 170.432 672.875 167.872C672.491 166.336 672.299 164.544 672.299 162.496C672.299 157.12 673.387 150.592 675.562 142.912C677.867 135.232 680.491 128.64 683.435 123.136C686.507 117.504 689.195 114.688 691.499 114.688C693.419 114.688 695.211 116.8 696.875 121.024C697.259 121.792 697.451 122.432 697.451 122.944C697.451 123.84 696.939 124.736 695.915 125.632C693.995 128.064 691.755 132.416 689.195 138.688C686.635 144.96 684.587 150.784 683.051 156.16C681.643 161.536 681.387 164.224 682.283 164.224C684.075 164.224 686.187 163.52 688.619 162.112C691.051 160.704 693.483 158.848 695.915 156.544C698.347 154.112 700.523 151.552 702.443 148.864C704.363 146.048 706.731 142.272 709.547 137.536C714.923 128.96 717.867 123.968 718.379 122.56C720.299 118.976 721.643 116.672 722.411 115.648C723.307 114.496 724.395 113.728 725.675 113.344H728.363C729.131 113.472 730.027 114.048 731.051 115.072C731.947 115.456 732.459 115.904 732.587 116.416C732.843 116.8 732.971 117.376 732.971 118.144L729.899 125.248L728.171 129.28C728.043 129.792 727.339 131.264 726.059 133.696C723.115 140.224 720.875 145.472 719.339 149.44C717.803 153.408 716.651 157.504 715.883 161.728C715.755 162.368 715.691 163.456 715.691 164.992C715.691 168.832 716.075 171.52 716.843 173.056C717.995 175.36 719.147 177.024 720.299 178.048C720.939 178.56 721.259 179.072 721.259 179.584C721.259 180.48 720.491 181.376 718.955 182.272C717.547 183.168 716.523 183.616 715.883 183.616ZM753.153 178.048C752.385 178.048 751.297 177.792 749.889 177.28C748.481 176.768 747.585 176.32 747.201 175.936C745.921 174.656 745.281 173.184 745.281 171.52C745.281 168.704 746.689 165.312 749.505 161.344C750.273 159.808 752.193 154.496 755.265 145.408L759.105 134.848C759.361 132.672 759.233 131.136 758.721 130.24C758.209 129.216 757.121 128.64 755.457 128.512H754.305C753.153 128.512 752.385 128.32 752.001 127.936C751.617 127.424 751.425 126.208 751.425 124.288C751.553 122.752 751.937 121.6 752.577 120.832C753.217 120.064 754.305 119.168 755.841 118.144C757.889 117.12 760.001 116.608 762.177 116.608C764.225 116.608 765.761 117.056 766.785 117.952C767.553 118.464 768.065 119.616 768.321 121.408C768.705 123.072 768.897 124.864 768.897 126.784C769.025 128.576 769.153 129.856 769.281 130.624C769.921 129.984 771.457 128.704 773.889 126.784C776.449 124.736 778.625 122.816 780.417 121.024C782.593 119.488 785.089 118.016 787.905 116.608C790.721 115.2 792.705 114.496 793.857 114.496C795.265 114.496 796.673 114.88 798.081 115.648C799.489 116.288 800.449 117.12 800.961 118.144C802.113 120.192 802.689 122.048 802.689 123.712C802.689 125.504 801.985 127.296 800.577 129.088C799.425 130.496 797.953 131.584 796.161 132.352C794.369 133.12 793.089 133.504 792.321 133.504C791.553 133.504 790.593 132.928 789.441 131.776C788.289 130.624 787.649 129.664 787.521 128.896C787.521 128.384 785.857 129.408 782.529 131.968C779.329 134.4 776.833 136.512 775.041 138.304C772.993 140.736 770.881 143.936 768.705 147.904C766.657 151.872 763.585 157.888 759.489 165.952C759.105 166.848 758.209 169.024 756.801 172.48C756.161 174.528 755.585 176 755.073 176.896C754.561 177.664 753.921 178.048 753.153 178.048ZM824.453 179.392C820.357 177.728 817.477 175.616 815.812 173.056C814.149 170.368 813.317 166.656 813.317 161.92C813.317 159.616 813.509 156.928 813.893 153.856L814.277 146.944C814.277 145.792 814.149 144.896 813.893 144.256C813.637 143.616 813.061 142.912 812.165 142.144C811.909 141.888 811.269 141.248 810.245 140.224C809.221 139.2 808.773 138.368 808.901 137.728L808.709 136.768C808.709 135.872 808.837 135.04 809.093 134.272C809.477 133.504 809.861 133.12 810.245 133.12C810.629 133.12 811.141 133.056 811.781 132.928C812.421 132.672 812.997 132.608 813.509 132.736C815.301 132.736 816.197 133.12 816.197 133.888C816.709 134.912 817.541 135.04 818.693 134.272C819.973 133.376 821.189 131.712 822.341 129.28C824.133 126.464 826.757 123.52 830.213 120.448C833.797 117.248 836.741 115.008 839.045 113.728C839.941 113.216 841.413 112.768 843.461 112.384C845.509 111.872 847.301 111.616 848.837 111.616C851.141 111.616 853.125 112.128 854.789 113.152C856.581 114.176 858.373 115.648 860.165 117.568C862.597 119.36 863.813 122.176 863.813 126.016C863.813 128.704 863.173 131.456 861.893 134.272C861.381 136.192 859.333 138.624 855.749 141.568C852.293 144.512 849.093 146.56 846.149 147.712C842.565 148.608 838.469 149.056 833.861 149.056C830.789 149.056 828.805 148.8 827.909 148.288C826.373 147.392 825.285 150.848 824.645 158.656C824.517 159.552 824.453 160.768 824.453 162.304C824.453 164.48 824.773 166.208 825.413 167.488C825.541 167.616 825.989 168.128 826.757 169.024C827.525 169.792 828.485 170.496 829.637 171.136C830.789 171.648 832.005 171.904 833.285 171.904C834.437 171.904 835.333 171.776 835.973 171.52C837.381 171.136 838.725 170.432 840.005 169.408C841.285 168.256 843.077 166.528 845.381 164.224C847.429 162.176 848.901 160.768 849.797 160C850.437 158.848 851.717 158.272 853.637 158.272C854.149 158.272 855.045 158.4 856.325 158.656C857.477 159.552 858.053 160.512 858.053 161.536C858.053 162.56 857.413 164.48 856.133 167.296C855.493 168.576 853.893 170.368 851.333 172.672C848.901 174.848 846.725 176.576 844.805 177.856C840.837 180.032 836.869 181.12 832.901 181.12C830.469 181.12 827.653 180.544 824.453 179.392ZM835.781 140.416C837.061 140.16 838.917 139.84 841.349 139.456C843.781 139.072 845.765 138.24 847.301 136.96C848.965 135.552 850.885 133.184 853.061 129.856C853.445 128.832 853.637 127.808 853.637 126.784C853.637 124.864 853.253 123.52 852.485 122.752C851.589 121.856 850.565 121.408 849.413 121.408C847.621 121.408 845.765 122.176 843.845 123.712C842.565 124.096 840.645 125.504 838.085 127.936C835.653 130.368 833.541 132.8 831.749 135.232C829.957 137.536 829.381 138.88 830.021 139.264C829.765 139.648 830.405 139.968 831.941 140.224C833.477 140.352 834.757 140.416 835.781 140.416ZM883.626 174.016C881.194 174.912 879.338 175.36 878.058 175.36C876.266 175.36 874.346 174.592 872.298 173.056C870.506 171.264 869.61 169.472 869.61 167.68C869.61 164.864 871.786 161.984 876.138 159.04C878.698 157.504 880.554 156.736 881.706 156.736C882.346 156.736 883.882 157.184 886.314 158.08C889.77 160.128 891.498 162.496 891.498 165.184C891.498 166.72 890.794 168.256 889.386 169.792C888.106 171.328 886.186 172.736 883.626 174.016Z"/>
<path fill="#fff" d="M63.2588 264.399C61.1104 264.399 60.0361 266.247 60.0361 269.942V295.82C60.0361 302.867 57.2754 307.443 51.7539 309.549C49.8633 310.258 47.7256 310.612 45.3408 310.612C42.9561 310.612 40.9258 310.354 39.25 309.839C37.5742 309.323 36.1562 308.636 34.9961 307.776C32.6543 306.015 31.4834 303.877 31.4834 301.363C31.4834 299.473 31.9238 297.979 32.8047 296.884C33.6855 295.767 34.8994 295.208 36.4463 295.208C37.7354 295.208 38.5947 295.509 39.0244 296.11C38.7666 297.142 38.6377 298.141 38.6377 299.107C38.6377 303.512 40.915 305.714 45.4697 305.714C47.7041 305.714 49.4229 305.069 50.626 303.78C51.8291 302.47 52.4307 300.622 52.4307 298.237V268.17C52.3877 267.031 52.1729 266.279 51.7861 265.914C51.1846 265.377 50.4756 265.033 49.6592 264.883C48.8428 264.711 48.1553 264.561 47.5967 264.432C47.0596 264.303 46.5977 264.142 46.2109 263.948C45.4805 263.562 45.1152 262.949 45.1152 262.111C45.1152 261.316 45.2871 260.726 45.6309 260.339C46.125 260.511 47.1885 260.597 48.8213 260.597H62.7754C65.2246 260.597 66.4492 261.424 66.4492 263.078C66.4492 263.787 66.2773 264.335 65.9336 264.722C65.1602 264.507 64.2686 264.399 63.2588 264.399ZM73.958 281.318C73.958 280.094 73.8613 279.116 73.668 278.386C73.4961 277.634 73.1309 277.258 72.5723 277.258C72.1641 277.258 71.8418 277.301 71.6055 277.387L70.832 277.709C70.6816 277.752 70.499 277.666 70.2842 277.451C69.876 277 69.6719 276.592 69.6719 276.227C69.6719 275.84 69.79 275.442 70.0264 275.034C70.2842 274.604 70.6602 274.121 71.1543 273.584C71.6699 273.047 72.25 272.574 72.8945 272.166C74.3555 271.199 75.6768 270.716 76.8584 270.716C78.04 270.716 78.8779 270.92 79.3721 271.328C79.8662 271.736 80.2422 272.273 80.5 272.939C80.9297 274.014 81.1445 275.636 81.1445 277.806V297.979C81.1445 301.61 82.2402 303.641 84.4316 304.07C85.0977 304.199 85.8818 304.264 86.7842 304.264C87.708 304.264 88.6855 304.146 89.7168 303.909C90.7695 303.673 91.7686 303.361 92.7139 302.975C94.54 302.223 96.1514 301.267 97.5479 300.106V281.318C97.5479 279.277 97.1826 278.021 96.4521 277.548C96.1514 277.354 95.7539 277.258 95.2598 277.258C94.7656 277.258 94.3682 277.333 94.0674 277.483C93.7881 277.634 93.5518 277.741 93.3584 277.806C93.1865 277.87 93.0361 277.87 92.9072 277.806C92.7783 277.72 92.6387 277.602 92.4883 277.451C92.166 277.086 92.0049 276.721 92.0049 276.355C92.0049 275.99 92.1338 275.604 92.3916 275.195C92.6709 274.766 93.1113 274.282 93.7129 273.745C94.3145 273.187 95.002 272.682 95.7754 272.23C97.5156 271.221 99.2559 270.716 100.996 270.716C103.102 270.716 104.305 272.209 104.605 275.195C104.691 276.033 104.734 276.903 104.734 277.806V296.884C104.734 300.192 104.863 302.255 105.121 303.071C105.379 303.888 105.69 304.425 106.056 304.683C106.421 304.919 106.872 305.037 107.409 305.037C107.946 305.037 108.387 304.951 108.73 304.779L109.697 304.36C109.977 304.296 110.224 304.425 110.438 304.747C110.89 305.413 110.954 306.015 110.632 306.552C110.31 307.089 109.805 307.604 109.117 308.099C108.451 308.593 107.699 309.022 106.861 309.388C103.145 311.021 100.502 310.988 98.9336 309.291C98.1172 308.41 97.6553 307.014 97.5479 305.102C94.3896 307.529 91.1562 309.205 87.8477 310.129C86.6445 310.451 85.377 310.612 84.0449 310.612C82.7344 310.612 81.4453 310.43 80.1777 310.064C78.9316 309.699 77.8467 309.108 76.9229 308.292C74.9463 306.552 73.958 303.866 73.958 300.235V281.318ZM137.477 282.156C137.477 278.848 136.102 276.656 133.352 275.582C132.471 275.238 131.515 275.066 130.483 275.066C129.474 275.066 128.528 275.152 127.647 275.324C126.788 275.496 126.025 275.765 125.359 276.13C123.855 276.946 123.104 278.117 123.104 279.643C123.104 281.104 123.727 282.371 124.973 283.445C126.348 284.584 128.904 285.991 132.643 287.667C136.381 289.321 139.26 291.137 141.279 293.113C143.32 295.068 144.341 297.324 144.341 299.881C144.341 302.76 143.159 305.188 140.796 307.164C138.024 309.463 134.189 310.612 129.291 310.612C123.297 310.612 119.15 309.334 116.852 306.777C116.057 305.875 115.659 304.726 115.659 303.329C115.659 299.956 116.486 297.99 118.141 297.432C118.549 297.303 118.936 297.238 119.301 297.238C120.311 297.238 120.858 297.55 120.944 298.173C121.417 303.544 124.425 306.229 129.968 306.229C133.298 306.229 135.521 305.295 136.639 303.426C137.004 302.824 137.187 302.094 137.187 301.234C137.187 300.375 136.907 299.591 136.349 298.882C135.812 298.173 135.06 297.518 134.093 296.916C133.126 296.293 131.977 295.691 130.645 295.111L126.358 293.178C119.784 290.17 116.497 286.174 116.497 281.189C116.497 277.967 117.926 275.389 120.783 273.455C123.49 271.629 126.981 270.716 131.257 270.716C137.058 270.716 140.667 271.973 142.085 274.486C142.45 275.131 142.633 275.84 142.633 276.613C142.633 277.387 142.59 278.085 142.504 278.708C142.418 279.31 142.311 279.857 142.182 280.352C141.967 281.297 141.72 281.963 141.44 282.35C140.882 282.758 140.076 282.962 139.023 282.962C137.992 282.962 137.477 282.693 137.477 282.156ZM162.355 288.021L162.323 296.497C162.323 300.042 162.506 302.18 162.871 302.91C163.236 303.619 163.666 304.049 164.16 304.199C164.654 304.328 165.288 304.393 166.062 304.393C166.835 304.393 167.533 304.339 168.156 304.231C168.801 304.103 169.402 303.941 169.961 303.748C170.52 303.555 171.057 303.34 171.572 303.104L173.151 302.427C173.517 302.298 173.925 302.674 174.376 303.555C174.505 303.791 174.569 304.07 174.569 304.393C174.569 304.693 174.44 305.091 174.183 305.585C173.925 306.079 173.42 306.648 172.668 307.293C171.938 307.916 171.078 308.475 170.09 308.969C167.941 310.064 166.008 310.612 164.289 310.612C162.592 310.612 161.206 310.516 160.132 310.322C159.058 310.129 158.145 309.742 157.393 309.162C155.846 307.959 155.072 305.757 155.072 302.556V277.193H151.882C151.216 277.193 150.732 276.979 150.432 276.549C149.916 275.883 149.658 275.324 149.658 274.873C149.658 274.121 149.841 273.702 150.206 273.616C153.622 273.036 156.039 270.501 157.457 266.011C157.865 264.657 158.188 263.057 158.424 261.209C159.455 261.037 160.229 260.951 160.744 260.951C161.281 260.951 161.743 261.22 162.13 261.757C162.517 262.294 162.699 262.917 162.678 263.626C162.678 264.335 162.667 265.001 162.646 265.624C162.624 266.247 162.603 266.924 162.581 267.654L162.452 272.166H173.603C173.882 272.66 174.021 273.187 174.021 273.745V274.744C174.021 275.646 173.538 276.388 172.571 276.968C171.604 277.526 170.53 277.806 169.349 277.806C168.188 277.806 167.351 277.795 166.835 277.773C166.341 277.73 165.857 277.688 165.385 277.645L163.967 277.451C163.473 277.408 162.946 277.365 162.388 277.322V277.677L162.355 288.021ZM225.874 305.907C222.737 309.044 218.945 310.612 214.498 310.612C211.061 310.612 208.311 309.624 206.248 307.647C204.164 305.649 203.122 303.061 203.122 299.881C203.122 295.928 204.884 292.963 208.407 290.986C211.587 289.182 216.066 288.279 221.846 288.279H225.874C225.896 287.463 225.906 286.668 225.906 285.895V283.478C225.906 280.599 225.487 278.568 224.649 277.387C223.704 276.055 222.093 275.389 219.815 275.389C214.595 275.389 211.909 277.258 211.759 280.996C211.737 281.576 211.748 282.06 211.791 282.446C211.361 282.79 210.631 282.962 209.6 282.962C208.59 282.962 207.849 282.844 207.376 282.607C206.925 282.371 206.527 282.049 206.184 281.641C205.453 280.803 205.088 279.739 205.088 278.45C205.088 277.14 205.464 276.001 206.216 275.034C206.989 274.046 208.031 273.24 209.342 272.617C211.898 271.35 214.917 270.716 218.397 270.716C221.878 270.716 224.488 271.06 226.229 271.747C227.99 272.413 229.387 273.305 230.418 274.422C232.244 276.398 233.157 279.052 233.157 282.382L232.835 297.851C232.835 300.665 232.964 302.448 233.222 303.2C233.501 303.952 233.823 304.457 234.188 304.715C234.575 304.973 235.037 305.102 235.574 305.102C236.133 305.102 236.584 305.016 236.928 304.844L237.83 304.425C238.131 304.317 238.389 304.446 238.604 304.812C238.84 305.155 238.958 305.467 238.958 305.746C238.958 306.004 238.84 306.348 238.604 306.777C238.389 307.207 237.97 307.669 237.347 308.163C236.745 308.636 236.058 309.055 235.284 309.42C231.009 311.439 228.098 310.967 226.551 308.002C226.229 307.422 226.003 306.724 225.874 305.907ZM225.777 301.686C225.777 298.592 225.799 295.52 225.842 292.469C221.373 292.641 218.333 292.931 216.722 293.339C215.132 293.726 213.982 294.102 213.273 294.467C212.564 294.832 212.006 295.262 211.598 295.756C210.932 296.572 210.599 297.808 210.599 299.462C210.599 301.095 211.179 302.405 212.339 303.394C213.499 304.36 215.164 304.844 217.334 304.844C220.406 304.844 223.221 303.791 225.777 301.686ZM273.795 264.722C272.312 264.722 271.099 264.281 270.153 263.4C269.229 262.52 268.768 261.306 268.768 259.759C268.768 258.298 269.326 257.062 270.443 256.053C271.518 255.043 272.796 254.538 274.278 254.538C275.782 254.538 276.985 254.989 277.888 255.892C278.79 256.794 279.241 258.019 279.241 259.565C279.241 261.026 278.704 262.262 277.63 263.271C276.577 264.238 275.299 264.722 273.795 264.722ZM263.354 318.057C263.439 318.744 263.729 319.356 264.224 319.894C264.739 320.431 265.459 320.699 266.383 320.699C267.328 320.699 268.112 320.603 268.735 320.409C269.38 320.216 269.928 319.861 270.379 319.346C271.281 318.25 271.732 316.295 271.732 313.48V280.803C271.732 279.299 271.518 278.257 271.088 277.677C270.68 277.075 269.938 276.774 268.864 276.774C268.306 276.774 267.801 276.871 267.35 277.064C266.941 277.107 266.651 276.807 266.479 276.162C266.329 275.604 266.415 275.109 266.737 274.68C267.06 274.229 267.532 273.756 268.155 273.262C268.778 272.768 269.455 272.338 270.186 271.973C271.818 271.135 273.204 270.716 274.343 270.716C275.481 270.716 276.33 270.888 276.889 271.231C277.469 271.575 277.909 272.037 278.21 272.617C278.683 273.562 278.919 275.088 278.919 277.193V308.808C278.919 314.437 277.576 318.873 274.891 322.117C272.441 325.082 269.412 326.564 265.803 326.564C262.408 326.564 260.174 325.598 259.1 323.664C258.799 323.084 258.648 322.311 258.648 321.344C258.648 320.398 259.024 319.593 259.776 318.927C260.507 318.282 261.205 317.96 261.871 317.96C262.537 317.96 263.031 317.992 263.354 318.057ZM312.435 305.907C309.298 309.044 305.506 310.612 301.059 310.612C297.621 310.612 294.871 309.624 292.809 307.647C290.725 305.649 289.683 303.061 289.683 299.881C289.683 295.928 291.444 292.963 294.968 290.986C298.147 289.182 302.627 288.279 308.406 288.279H312.435C312.456 287.463 312.467 286.668 312.467 285.895V283.478C312.467 280.599 312.048 278.568 311.21 277.387C310.265 276.055 308.653 275.389 306.376 275.389C301.155 275.389 298.47 277.258 298.319 280.996C298.298 281.576 298.309 282.06 298.352 282.446C297.922 282.79 297.191 282.962 296.16 282.962C295.15 282.962 294.409 282.844 293.937 282.607C293.485 282.371 293.088 282.049 292.744 281.641C292.014 280.803 291.648 279.739 291.648 278.45C291.648 277.14 292.024 276.001 292.776 275.034C293.55 274.046 294.592 273.24 295.902 272.617C298.459 271.35 301.478 270.716 304.958 270.716C308.438 270.716 311.049 271.06 312.789 271.747C314.551 272.413 315.947 273.305 316.979 274.422C318.805 276.398 319.718 279.052 319.718 282.382L319.396 297.851C319.396 300.665 319.524 302.448 319.782 303.2C320.062 303.952 320.384 304.457 320.749 304.715C321.136 304.973 321.598 305.102 322.135 305.102C322.693 305.102 323.145 305.016 323.488 304.844L324.391 304.425C324.691 304.317 324.949 304.446 325.164 304.812C325.4 305.155 325.519 305.467 325.519 305.746C325.519 306.004 325.4 306.348 325.164 306.777C324.949 307.207 324.53 307.669 323.907 308.163C323.306 308.636 322.618 309.055 321.845 309.42C317.569 311.439 314.658 310.967 313.111 308.002C312.789 307.422 312.563 306.724 312.435 305.907ZM312.338 301.686C312.338 298.592 312.359 295.52 312.402 292.469C307.934 292.641 304.894 292.931 303.282 293.339C301.692 293.726 300.543 294.102 299.834 294.467C299.125 294.832 298.566 295.262 298.158 295.756C297.492 296.572 297.159 297.808 297.159 299.462C297.159 301.095 297.739 302.405 298.899 303.394C300.06 304.36 301.725 304.844 303.895 304.844C306.967 304.844 309.781 303.791 312.338 301.686ZM341.761 308.421C334.585 289.687 330.89 280.019 330.675 279.417C330.46 278.794 330.234 278.225 329.998 277.709C329.461 276.506 328.978 275.904 328.548 275.904C328.269 275.904 327.957 275.937 327.613 276.001C327.27 276.065 326.99 275.947 326.775 275.646C326.561 275.346 326.453 274.97 326.453 274.519C326.453 274.067 326.657 273.605 327.065 273.133C327.495 272.66 328.021 272.252 328.645 271.908C329.998 271.113 331.072 270.716 331.867 270.716C332.662 270.716 333.296 270.737 333.769 270.78C334.241 270.823 334.682 270.984 335.09 271.264C335.949 271.822 336.669 273.025 337.249 274.873L346.691 303.039C348.195 300.01 349.312 297.689 350.043 296.078L352.041 291.373C354.447 285.443 355.65 281.275 355.65 278.869V278.45C355.65 277.376 355.403 276.527 354.909 275.904C354.437 275.281 353.588 274.905 352.363 274.776C352.148 274.433 352.041 274.078 352.041 273.713C352.041 273.326 352.245 272.95 352.653 272.585C353.083 272.198 353.62 271.865 354.265 271.586C355.597 271.006 357.047 270.716 358.615 270.716C360.205 270.716 361.43 270.963 362.289 271.457C363.17 271.93 363.61 272.875 363.61 274.293C363.61 277.301 361.569 283.284 357.487 292.243L354.555 298.398C352.535 302.48 351.01 305.252 349.979 306.713C348.131 309.312 346.509 310.612 345.112 310.612C344.103 310.612 343.2 310.215 342.405 309.42C342.126 309.141 341.911 308.808 341.761 308.421ZM392.356 305.907C389.22 309.044 385.428 310.612 380.98 310.612C377.543 310.612 374.793 309.624 372.73 307.647C370.646 305.649 369.604 303.061 369.604 299.881C369.604 295.928 371.366 292.963 374.89 290.986C378.069 289.182 382.549 288.279 388.328 288.279H392.356C392.378 287.463 392.389 286.668 392.389 285.895V283.478C392.389 280.599 391.97 278.568 391.132 277.387C390.187 276.055 388.575 275.389 386.298 275.389C381.077 275.389 378.392 277.258 378.241 280.996C378.22 281.576 378.23 282.06 378.273 282.446C377.844 282.79 377.113 282.962 376.082 282.962C375.072 282.962 374.331 282.844 373.858 282.607C373.407 282.371 373.01 282.049 372.666 281.641C371.936 280.803 371.57 279.739 371.57 278.45C371.57 277.14 371.946 276.001 372.698 275.034C373.472 274.046 374.514 273.24 375.824 272.617C378.381 271.35 381.399 270.716 384.88 270.716C388.36 270.716 390.971 271.06 392.711 271.747C394.473 272.413 395.869 273.305 396.9 274.422C398.727 276.398 399.64 279.052 399.64 282.382L399.317 297.851C399.317 300.665 399.446 302.448 399.704 303.2C399.983 303.952 400.306 304.457 400.671 304.715C401.058 304.973 401.52 305.102 402.057 305.102C402.615 305.102 403.066 305.016 403.41 304.844L404.312 304.425C404.613 304.317 404.871 304.446 405.086 304.812C405.322 305.155 405.44 305.467 405.44 305.746C405.44 306.004 405.322 306.348 405.086 306.777C404.871 307.207 404.452 307.669 403.829 308.163C403.228 308.636 402.54 309.055 401.767 309.42C397.491 311.439 394.58 310.967 393.033 308.002C392.711 307.422 392.485 306.724 392.356 305.907ZM392.26 301.686C392.26 298.592 392.281 295.52 392.324 292.469C387.855 292.641 384.815 292.931 383.204 293.339C381.614 293.726 380.465 294.102 379.756 294.467C379.047 294.832 378.488 295.262 378.08 295.756C377.414 296.572 377.081 297.808 377.081 299.462C377.081 301.095 377.661 302.405 378.821 303.394C379.981 304.36 381.646 304.844 383.816 304.844C386.889 304.844 389.703 303.791 392.26 301.686ZM431.898 282.156C431.898 278.848 430.523 276.656 427.773 275.582C426.893 275.238 425.937 275.066 424.905 275.066C423.896 275.066 422.95 275.152 422.069 275.324C421.21 275.496 420.447 275.765 419.781 276.13C418.277 276.946 417.525 278.117 417.525 279.643C417.525 281.104 418.148 282.371 419.395 283.445C420.77 284.584 423.326 285.991 427.064 287.667C430.803 289.321 433.682 291.137 435.701 293.113C437.742 295.068 438.763 297.324 438.763 299.881C438.763 302.76 437.581 305.188 435.218 307.164C432.446 309.463 428.611 310.612 423.713 310.612C417.719 310.612 413.572 309.334 411.273 306.777C410.479 305.875 410.081 304.726 410.081 303.329C410.081 299.956 410.908 297.99 412.562 297.432C412.971 297.303 413.357 297.238 413.723 297.238C414.732 297.238 415.28 297.55 415.366 298.173C415.839 303.544 418.847 306.229 424.39 306.229C427.72 306.229 429.943 305.295 431.061 303.426C431.426 302.824 431.608 302.094 431.608 301.234C431.608 300.375 431.329 299.591 430.771 298.882C430.233 298.173 429.481 297.518 428.515 296.916C427.548 296.293 426.398 295.691 425.066 295.111L420.78 293.178C414.206 290.17 410.919 286.174 410.919 281.189C410.919 277.967 412.348 275.389 415.205 273.455C417.912 271.629 421.403 270.716 425.679 270.716C431.479 270.716 435.089 271.973 436.507 274.486C436.872 275.131 437.055 275.84 437.055 276.613C437.055 277.387 437.012 278.085 436.926 278.708C436.84 279.31 436.732 279.857 436.604 280.352C436.389 281.297 436.142 281.963 435.862 282.35C435.304 282.758 434.498 282.962 433.445 282.962C432.414 282.962 431.898 282.693 431.898 282.156ZM468.83 282.479L468.862 281.318C468.862 280.91 468.766 280.223 468.572 279.256C468.379 278.268 467.756 277.462 466.703 276.839C465.672 276.216 464.351 275.904 462.739 275.904C461.149 275.904 459.731 276.312 458.485 277.129C457.261 277.924 456.262 278.998 455.488 280.352C454.027 282.93 453.297 286.378 453.297 290.696C453.297 294.778 454.285 298.098 456.262 300.654C458.281 303.275 460.945 304.586 464.254 304.586C467.262 304.586 470.141 303.759 472.891 302.104C473.557 301.696 474.072 301.342 474.438 301.041C474.652 301.041 474.899 301.213 475.179 301.557C475.716 302.18 475.984 302.685 475.984 303.071C475.984 303.437 475.834 303.866 475.533 304.36C475.232 304.833 474.792 305.349 474.212 305.907C473.653 306.444 472.977 306.992 472.182 307.551C471.387 308.109 470.495 308.614 469.507 309.065C467.251 310.097 464.941 310.612 462.578 310.612C460.215 310.612 458.002 310.215 455.939 309.42C453.898 308.604 452.137 307.411 450.654 305.843C447.475 302.513 445.885 297.937 445.885 292.114C445.885 285.497 447.904 280.18 451.943 276.162C455.617 272.531 459.86 270.716 464.673 270.716C467.831 270.716 470.463 271.393 472.568 272.746C474.781 274.164 475.888 276.033 475.888 278.354C475.888 279.621 475.608 280.577 475.05 281.222C474.083 282.36 472.955 282.93 471.666 282.93C470.398 282.93 469.453 282.779 468.83 282.479ZM500.058 310.161C499.606 310.054 498.919 310 497.995 310H487.07C485.008 310 483.687 309.635 483.106 308.904C482.87 308.625 482.752 308.303 482.752 307.938C482.752 307.035 482.924 306.369 483.268 305.939C483.783 306.111 484.256 306.197 484.686 306.197C485.137 306.197 485.513 306.144 485.813 306.036C486.114 305.907 486.351 305.703 486.522 305.424C486.823 304.908 486.974 303.898 486.974 302.395V281.318C486.974 279.299 486.598 278.042 485.846 277.548C485.545 277.354 485.147 277.258 484.653 277.258C484.159 277.258 483.762 277.333 483.461 277.483C483.182 277.634 482.945 277.741 482.752 277.806C482.58 277.87 482.43 277.87 482.301 277.806C482.172 277.72 482.043 277.602 481.914 277.451C481.592 277.064 481.431 276.699 481.431 276.355C481.431 275.99 481.56 275.604 481.817 275.195C482.097 274.766 482.537 274.282 483.139 273.745C483.74 273.187 484.428 272.682 485.201 272.23C486.941 271.221 488.682 270.716 490.422 270.716C492.398 270.716 493.569 272.005 493.935 274.583C494.042 275.335 494.106 276.119 494.128 276.936C497.265 274.164 500.498 272.263 503.828 271.231C504.945 270.888 505.955 270.716 506.857 270.716C507.781 270.716 508.533 270.845 509.113 271.103C509.715 271.36 510.188 271.715 510.531 272.166C511.176 273.047 511.498 274.175 511.498 275.55C511.498 276.925 511.434 278.021 511.305 278.837C511.176 279.653 511.015 280.373 510.821 280.996C510.435 282.264 510.069 283.069 509.726 283.413C509.124 284.036 508.318 284.348 507.309 284.348C506.277 284.348 505.762 284.047 505.762 283.445C505.762 281.146 505.665 279.675 505.472 279.03C505.106 277.849 504.419 277.258 503.409 277.258C502.399 277.258 501.486 277.376 500.67 277.612C499.854 277.827 499.059 278.128 498.285 278.515C496.717 279.288 495.342 280.287 494.16 281.512V302.942C494.225 304.64 494.966 305.671 496.384 306.036C496.792 306.144 497.254 306.24 497.77 306.326C498.285 306.412 498.726 306.52 499.091 306.648C499.478 306.756 499.778 306.885 499.993 307.035C500.358 307.314 500.541 307.766 500.541 308.389C500.541 309.162 500.38 309.753 500.058 310.161ZM523.647 264.722C522.917 264.722 522.24 264.614 521.617 264.399C521.016 264.163 520.489 263.83 520.038 263.4C519.093 262.498 518.62 261.284 518.62 259.759C518.62 258.298 519.179 257.062 520.296 256.053C521.37 255.043 522.659 254.538 524.163 254.538C525.667 254.538 526.87 254.989 527.772 255.892C528.675 256.794 529.126 258.019 529.126 259.565C529.126 261.026 528.589 262.262 527.515 263.271C526.462 264.238 525.173 264.722 523.647 264.722ZM521.682 310C518.373 310 516.719 309.248 516.719 307.744C516.719 306.971 516.891 306.369 517.234 305.939C517.75 306.111 518.223 306.197 518.652 306.197C520.65 306.197 521.628 304.93 521.585 302.395V280.803C521.585 279.299 521.37 278.257 520.94 277.677C520.532 277.075 519.791 276.774 518.717 276.774C517.922 276.774 517.202 276.871 516.558 277.064C516.171 277.107 515.892 276.807 515.72 276.162C515.569 275.582 515.655 275.077 515.978 274.647C516.3 274.196 516.794 273.734 517.46 273.262C518.147 272.768 518.899 272.338 519.716 271.973C521.478 271.135 522.949 270.716 524.131 270.716C525.312 270.716 526.183 270.888 526.741 271.231C527.321 271.575 527.762 272.037 528.062 272.617C528.535 273.562 528.771 275.088 528.771 277.193V302.942C528.836 304.64 529.448 305.671 530.608 306.036C530.931 306.144 531.328 306.24 531.801 306.326C532.273 306.412 532.692 306.52 533.058 306.648C533.444 306.756 533.745 306.885 533.96 307.035C534.325 307.314 534.508 307.766 534.508 308.389C534.508 309.162 534.347 309.753 534.024 310.161C533.573 310.054 532.886 310 531.962 310H521.682ZM555.777 322.053C556.057 322.418 556.196 322.88 556.196 323.438C556.196 323.997 555.949 324.47 555.455 324.856C554.961 325.265 554.359 325.598 553.65 325.855C552.297 326.328 550.997 326.564 549.751 326.564C548.505 326.564 547.474 326.479 546.657 326.307C545.841 326.135 545.164 325.834 544.627 325.404C543.596 324.545 543.08 323.095 543.08 321.054V281.318C543.08 279.299 542.704 278.042 541.952 277.548C541.651 277.354 541.254 277.258 540.76 277.258C540.266 277.258 539.868 277.333 539.567 277.483C539.288 277.634 539.052 277.741 538.858 277.806C538.687 277.87 538.536 277.87 538.407 277.806C538.278 277.72 538.149 277.602 538.021 277.451C537.698 277.064 537.537 276.699 537.537 276.355C537.537 275.99 537.666 275.604 537.924 275.195C538.203 274.766 538.644 274.282 539.245 273.745C539.847 273.187 540.534 272.682 541.308 272.23C543.048 271.221 544.788 270.716 546.528 270.716C548.634 270.716 549.848 272.295 550.17 275.453C553.543 272.295 557.217 270.716 561.191 270.716C565.574 270.716 569.162 272.23 571.955 275.26C574.984 278.525 576.499 283.08 576.499 288.924C576.499 293.285 575.511 297.185 573.534 300.622C571.729 303.759 569.248 306.219 566.09 308.002C563.061 309.742 559.838 310.612 556.422 310.612C554.51 310.612 552.458 310.312 550.267 309.71V314.189C550.267 317.67 550.46 319.808 550.847 320.603C551.255 321.419 551.663 321.902 552.071 322.053C552.501 322.203 552.984 322.278 553.521 322.278C554.08 322.278 554.832 322.203 555.777 322.053ZM550.267 280.48V302.846C552.308 304.586 554.768 305.456 557.646 305.456C560.998 305.456 563.727 304.221 565.832 301.75C568.066 299.107 569.184 295.509 569.184 290.954C569.184 286.163 568.195 282.543 566.219 280.094C564.457 277.881 562.008 276.774 558.871 276.774C555.734 276.774 552.866 278.01 550.267 280.48ZM594.514 288.021L594.481 296.497C594.481 300.042 594.664 302.18 595.029 302.91C595.395 303.619 595.824 304.049 596.318 304.199C596.812 304.328 597.446 304.393 598.22 304.393C598.993 304.393 599.691 304.339 600.314 304.231C600.959 304.103 601.561 303.941 602.119 303.748C602.678 303.555 603.215 303.34 603.73 303.104L605.31 302.427C605.675 302.298 606.083 302.674 606.534 303.555C606.663 303.791 606.728 304.07 606.728 304.393C606.728 304.693 606.599 305.091 606.341 305.585C606.083 306.079 605.578 306.648 604.826 307.293C604.096 307.916 603.236 308.475 602.248 308.969C600.1 310.064 598.166 310.612 596.447 310.612C594.75 310.612 593.364 310.516 592.29 310.322C591.216 310.129 590.303 309.742 589.551 309.162C588.004 307.959 587.23 305.757 587.23 302.556V277.193H584.04C583.374 277.193 582.891 276.979 582.59 276.549C582.074 275.883 581.816 275.324 581.816 274.873C581.816 274.121 581.999 273.702 582.364 273.616C585.78 273.036 588.197 270.501 589.615 266.011C590.023 264.657 590.346 263.057 590.582 261.209C591.613 261.037 592.387 260.951 592.902 260.951C593.439 260.951 593.901 261.22 594.288 261.757C594.675 262.294 594.857 262.917 594.836 263.626C594.836 264.335 594.825 265.001 594.804 265.624C594.782 266.247 594.761 266.924 594.739 267.654L594.61 272.166H605.761C606.04 272.66 606.18 273.187 606.18 273.745V274.744C606.18 275.646 605.696 276.388 604.729 276.968C603.763 277.526 602.688 277.806 601.507 277.806C600.347 277.806 599.509 277.795 598.993 277.773C598.499 277.73 598.016 277.688 597.543 277.645L596.125 277.451C595.631 277.408 595.104 277.365 594.546 277.322V277.677L594.514 288.021ZM614.784 281.318C614.784 280.094 614.688 279.116 614.494 278.386C614.322 277.634 613.957 277.258 613.398 277.258C612.99 277.258 612.668 277.301 612.432 277.387L611.658 277.709C611.508 277.752 611.325 277.666 611.11 277.451C610.702 277 610.498 276.592 610.498 276.227C610.498 275.84 610.616 275.442 610.853 275.034C611.11 274.604 611.486 274.121 611.98 273.584C612.496 273.047 613.076 272.574 613.721 272.166C615.182 271.199 616.503 270.716 617.685 270.716C618.866 270.716 619.704 270.92 620.198 271.328C620.692 271.736 621.068 272.273 621.326 272.939C621.756 274.014 621.971 275.636 621.971 277.806V297.979C621.971 301.61 623.066 303.641 625.258 304.07C625.924 304.199 626.708 304.264 627.61 304.264C628.534 304.264 629.512 304.146 630.543 303.909C631.596 303.673 632.595 303.361 633.54 302.975C635.366 302.223 636.978 301.267 638.374 300.106V281.318C638.374 279.277 638.009 278.021 637.278 277.548C636.978 277.354 636.58 277.258 636.086 277.258C635.592 277.258 635.194 277.333 634.894 277.483C634.614 277.634 634.378 277.741 634.185 277.806C634.013 277.87 633.862 277.87 633.733 277.806C633.604 277.72 633.465 277.602 633.314 277.451C632.992 277.086 632.831 276.721 632.831 276.355C632.831 275.99 632.96 275.604 633.218 275.195C633.497 274.766 633.938 274.282 634.539 273.745C635.141 273.187 635.828 272.682 636.602 272.23C638.342 271.221 640.082 270.716 641.822 270.716C643.928 270.716 645.131 272.209 645.432 275.195C645.518 276.033 645.561 276.903 645.561 277.806V296.884C645.561 300.192 645.689 302.255 645.947 303.071C646.205 303.888 646.517 304.425 646.882 304.683C647.247 304.919 647.698 305.037 648.235 305.037C648.772 305.037 649.213 304.951 649.557 304.779L650.523 304.36C650.803 304.296 651.05 304.425 651.265 304.747C651.716 305.413 651.78 306.015 651.458 306.552C651.136 307.089 650.631 307.604 649.943 308.099C649.277 308.593 648.525 309.022 647.688 309.388C643.971 311.021 641.328 310.988 639.76 309.291C638.943 308.41 638.481 307.014 638.374 305.102C635.216 307.529 631.982 309.205 628.674 310.129C627.471 310.451 626.203 310.612 624.871 310.612C623.561 310.612 622.271 310.43 621.004 310.064C619.758 309.699 618.673 309.108 617.749 308.292C615.772 306.552 614.784 303.866 614.784 300.235V281.318ZM674.017 310.161C673.565 310.054 672.878 310 671.954 310H661.029C658.967 310 657.646 309.635 657.065 308.904C656.829 308.625 656.711 308.303 656.711 307.938C656.711 307.035 656.883 306.369 657.227 305.939C657.742 306.111 658.215 306.197 658.645 306.197C659.096 306.197 659.472 306.144 659.772 306.036C660.073 305.907 660.31 305.703 660.481 305.424C660.782 304.908 660.933 303.898 660.933 302.395V281.318C660.933 279.299 660.557 278.042 659.805 277.548C659.504 277.354 659.106 277.258 658.612 277.258C658.118 277.258 657.721 277.333 657.42 277.483C657.141 277.634 656.904 277.741 656.711 277.806C656.539 277.87 656.389 277.87 656.26 277.806C656.131 277.72 656.002 277.602 655.873 277.451C655.551 277.064 655.39 276.699 655.39 276.355C655.39 275.99 655.519 275.604 655.776 275.195C656.056 274.766 656.496 274.282 657.098 273.745C657.699 273.187 658.387 272.682 659.16 272.23C660.9 271.221 662.641 270.716 664.381 270.716C666.357 270.716 667.528 272.005 667.894 274.583C668.001 275.335 668.065 276.119 668.087 276.936C671.224 274.164 674.457 272.263 677.787 271.231C678.904 270.888 679.914 270.716 680.816 270.716C681.74 270.716 682.492 270.845 683.072 271.103C683.674 271.36 684.146 271.715 684.49 272.166C685.135 273.047 685.457 274.175 685.457 275.55C685.457 276.925 685.393 278.021 685.264 278.837C685.135 279.653 684.974 280.373 684.78 280.996C684.394 282.264 684.028 283.069 683.685 283.413C683.083 284.036 682.277 284.348 681.268 284.348C680.236 284.348 679.721 284.047 679.721 283.445C679.721 281.146 679.624 279.675 679.431 279.03C679.065 277.849 678.378 277.258 677.368 277.258C676.358 277.258 675.445 277.376 674.629 277.612C673.812 277.827 673.018 278.128 672.244 278.515C670.676 279.288 669.301 280.287 668.119 281.512V302.942C668.184 304.64 668.925 305.671 670.343 306.036C670.751 306.144 671.213 306.24 671.729 306.326C672.244 306.412 672.685 306.52 673.05 306.648C673.437 306.756 673.737 306.885 673.952 307.035C674.317 307.314 674.5 307.766 674.5 308.389C674.5 309.162 674.339 309.753 674.017 310.161ZM690.098 292.662C690.098 290.062 690.366 287.753 690.903 285.733C691.44 283.714 692.16 281.909 693.062 280.319C693.986 278.708 695.061 277.301 696.285 276.098C697.531 274.895 698.863 273.896 700.281 273.101C703.074 271.511 705.824 270.716 708.531 270.716C711.238 270.716 713.408 271.199 715.041 272.166C716.674 273.111 718.006 274.379 719.037 275.969C720.949 278.998 721.905 283.026 721.905 288.054C721.905 289.923 721.121 290.879 719.553 290.922L697.059 291.405C697.188 296.067 698.391 299.516 700.668 301.75C702.602 303.641 705.104 304.586 708.177 304.586C712.753 304.586 716.47 303.63 719.327 301.718C719.521 301.718 719.757 301.879 720.036 302.201C720.573 302.846 720.842 303.404 720.842 303.877C720.842 304.908 719.553 306.229 716.975 307.841C714.01 309.688 710.551 310.612 706.598 310.612C701.441 310.612 697.392 308.969 694.448 305.682C691.548 302.459 690.098 298.119 690.098 292.662ZM697.252 287.248C703.439 286.947 709.101 286.55 714.235 286.056C714.472 279.224 712.108 275.808 707.146 275.808C704.374 275.808 702.107 276.882 700.346 279.03C698.734 281.007 697.703 283.746 697.252 287.248ZM762.865 275.228C766.088 272.22 769.687 270.716 773.661 270.716C778.044 270.716 781.61 272.23 784.36 275.26C787.368 278.525 788.872 283.08 788.872 288.924C788.872 295.498 786.81 300.826 782.685 304.908C778.796 308.711 774.198 310.612 768.892 310.612C765.433 310.612 761.984 309.828 758.547 308.26C757.43 307.766 756.474 307.196 755.679 306.552V262.466C755.679 260.983 755.528 260.027 755.228 259.598C754.776 258.91 753.981 258.566 752.843 258.566C752.327 258.566 751.844 258.62 751.393 258.728C750.941 258.813 750.63 258.813 750.458 258.728C750.286 258.62 750.136 258.48 750.007 258.309C749.556 257.621 750.093 256.719 751.618 255.602C753.981 253.861 756.312 252.991 758.611 252.991C761.061 252.991 762.436 254.312 762.736 256.955C762.822 257.75 762.865 258.588 762.865 259.469V275.228ZM762.865 280.352V302.942C764.885 304.618 767.302 305.456 770.116 305.456C773.446 305.456 776.153 304.221 778.237 301.75C780.45 299.129 781.557 295.53 781.557 290.954C781.557 286.142 780.579 282.521 778.624 280.094C776.884 277.881 774.445 276.774 771.309 276.774C768.193 276.774 765.379 277.967 762.865 280.352ZM800.731 310C797.444 310 795.801 309.248 795.801 307.744C795.801 306.949 795.962 306.348 796.284 305.939C796.8 306.111 797.283 306.197 797.734 306.197C799.604 306.197 800.57 305.069 800.635 302.813V262.466C800.635 260.962 800.484 260.006 800.184 259.598C799.689 258.91 798.895 258.566 797.799 258.566C797.305 258.566 796.821 258.62 796.349 258.728C795.897 258.813 795.575 258.813 795.382 258.728C795.21 258.62 795.07 258.48 794.963 258.309C794.533 257.6 795.07 256.697 796.574 255.602C798.938 253.861 801.269 252.991 803.567 252.991C806.017 252.991 807.392 254.312 807.692 256.955C807.778 257.75 807.821 258.588 807.821 259.469V302.942C807.886 304.618 808.498 305.649 809.658 306.036C810.002 306.144 810.399 306.24 810.851 306.326C811.323 306.412 811.753 306.52 812.14 306.648C812.526 306.756 812.827 306.885 813.042 307.035C813.407 307.314 813.59 307.766 813.59 308.389C813.59 309.141 813.418 309.731 813.074 310.161C812.645 310.054 811.957 310 811.012 310H800.731ZM817.876 292.211C817.876 289.59 818.134 287.237 818.649 285.153C819.165 283.069 819.874 281.232 820.776 279.643C821.679 278.053 822.742 276.699 823.967 275.582C825.191 274.443 826.502 273.52 827.898 272.811C830.627 271.414 833.624 270.716 836.89 270.716C841.079 270.716 844.635 272.241 847.557 275.292C850.801 278.644 852.423 283.069 852.423 288.569C852.423 295.788 850.457 301.406 846.525 305.424C843.109 308.883 839.017 310.612 834.247 310.612C829.263 310.612 825.267 308.861 822.259 305.359C819.337 301.986 817.876 297.604 817.876 292.211ZM836.148 305.359C837.588 305.359 838.877 305.026 840.016 304.36C841.154 303.673 842.121 302.738 842.916 301.557C844.506 299.107 845.301 295.928 845.301 292.018C845.301 287.721 844.463 284.068 842.787 281.061C840.896 277.602 838.179 275.872 834.634 275.872C831.776 275.872 829.488 276.968 827.77 279.159C825.943 281.479 825.03 284.724 825.03 288.892C825.03 294.112 826.18 298.237 828.479 301.267C830.541 303.995 833.098 305.359 836.148 305.359ZM871.501 297.142C870.685 297.958 870.276 298.753 870.276 299.526C870.276 300.3 870.502 300.891 870.953 301.299C871.404 301.686 871.995 301.986 872.726 302.201C873.843 302.502 875.078 302.652 876.432 302.652H879.203C886.207 302.652 890.815 304.328 893.028 307.68C893.845 308.926 894.253 310.44 894.253 312.224C894.253 314.028 893.952 315.607 893.351 316.961C892.749 318.314 891.943 319.507 890.934 320.538C889.924 321.591 888.753 322.493 887.421 323.245C886.089 323.997 884.682 324.609 883.199 325.082C880.299 326.049 877.592 326.532 875.078 326.532C872.564 326.532 870.362 326.328 868.472 325.92C866.603 325.533 864.938 324.921 863.477 324.083C860.318 322.257 858.739 319.636 858.739 316.22C858.739 313.319 860.189 310.72 863.09 308.421C863.971 307.733 864.905 307.121 865.894 306.584C864.733 305.617 864.153 304.317 864.153 302.685C864.153 300.128 865.421 297.979 867.956 296.239C864.239 294.821 861.801 292.286 860.641 288.634C860.275 287.431 860.093 286.088 860.093 284.605C860.093 283.123 860.318 281.727 860.77 280.416C861.242 279.105 861.876 277.935 862.671 276.903C863.487 275.872 864.433 274.97 865.507 274.196C866.581 273.423 867.73 272.778 868.955 272.263C871.361 271.231 873.886 270.716 876.528 270.716C880.89 270.716 884.37 271.812 886.97 274.003C887.249 272.929 887.389 271.822 887.389 270.684C887.389 269.545 887.142 268.621 886.647 267.912C887.485 266.924 888.731 266.43 890.386 266.43C891.331 266.43 892.083 266.688 892.642 267.203C893.716 268.127 894.253 269.051 894.253 269.975C894.253 270.877 894.113 271.672 893.834 272.359C893.555 273.025 893.189 273.659 892.738 274.261C891.943 275.378 890.912 276.388 889.645 277.29C890.504 278.901 890.934 280.771 890.934 282.897C890.934 285.003 890.461 286.969 889.516 288.795C888.592 290.6 887.346 292.136 885.777 293.403C882.555 296.003 878.58 297.303 873.854 297.303C873.209 297.303 872.425 297.249 871.501 297.142ZM869.922 290.277C870.695 291.029 871.576 291.588 872.564 291.953C873.553 292.318 874.605 292.501 875.723 292.501C876.861 292.501 877.925 292.34 878.913 292.018C879.923 291.695 880.793 291.223 881.523 290.6C883.092 289.268 883.876 287.377 883.876 284.928C883.876 282.221 883.178 279.965 881.781 278.16C880.191 276.162 877.957 275.163 875.078 275.163C871.447 275.163 869.095 276.646 868.021 279.61C867.655 280.62 867.473 281.866 867.473 283.349C867.473 284.831 867.688 286.163 868.117 287.345C868.568 288.526 869.17 289.504 869.922 290.277ZM869.954 308.485C867.14 310.397 865.732 312.567 865.732 314.995C865.732 317.101 866.957 318.701 869.406 319.797C871.361 320.699 873.768 321.15 876.625 321.15C879.225 321.15 881.631 320.721 883.844 319.861C886.744 318.723 888.194 316.864 888.194 314.286C888.194 310.827 885.391 309.098 879.783 309.098L876.915 309.13C873.993 309.13 871.673 308.915 869.954 308.485Z"/>
<path fill="#fff" d="M46.1932 218.555C46.1932 218.555 124.089 112.761 147.336 79.621L73.5133 173.212C73.5133 173.212 58.4014 144.729 76.4203 119.732C76.4203 119.732 81.0709 125.547 83.3945 133.684C83.3945 133.684 89.7919 99.3899 103.16 84.8581C103.16 84.8581 110.134 95.3194 107.227 105.781C107.227 105.781 113.625 73.2269 138.038 55.2111L136.871 68.5763C136.871 68.5763 151.986 38.3492 168.265 31.375C168.265 31.375 186.87 57.5316 154.897 96.4829C154.897 96.4829 172.915 84.8612 178.149 68.5763C178.149 68.5763 179.724 110.173 142.105 122.056C142.105 122.056 159.544 120.893 167.101 110.431C167.101 110.431 163.037 136.011 117.112 141.242C117.112 141.242 133.387 145.312 142.688 141.242C142.688 141.242 127.717 168.833 98.5097 165.078C98.5097 165.078 110.131 173.216 118.272 169.728C118.272 169.728 104.32 183.097 80.4875 182.517L63.0487 208.673L46.1932 218.555Z"/>
<path fill="#fff" d="M142.105 218.555H25.8411V222.625H142.105V218.555Z"/>
</svg>
